<svg version="1.1" xmlns="http://www.w3.org/2000/svg" style="display: block;" viewBox="0 0 2048 2048" width="1000" height="1000" preserveAspectRatio="none">
<path transform="translate(0,0)" fill="rgb(62,126,97)" d="M 186.075 759.971 C 195.422 706.043 200.971 670.377 217.723 616.408 C 273.817 439.353 386.436 285.584 538.31 178.676 C 652.9 98.1205 789.623 51.0058 928.476 36.1283 C 959.844 32.9054 991.249 32.5907 1022.71 30.7282 C 1034.29 30.0424 1047.97 32.4712 1059.75 32.5049 C 1102.88 32.6283 1145.69 37.6262 1188.27 45.0909 C 1403.53 81.9249 1594.73 204.278 1718.36 384.303 C 1781.18 474.617 1825.65 576.395 1849.23 683.852 C 1853 701.153 1855.88 719.364 1859.02 736.823 C 1860.38 744.353 1860.8 752.9 1862.14 760.205 C 1943.02 762.942 2013.03 829.769 2029.37 907.692 C 2035.8 938.343 2034.05 974.33 2034.04 1005.84 L 2033.99 1122.73 L 2033.99 1293.23 C 2034.01 1323.52 2034.42 1355.08 2033.79 1385.26 C 2032.9 1427.55 2013.58 1470.06 1982.24 1498.8 C 1970.69 1509.55 1957.44 1518.32 1943.03 1524.75 C 1933.19 1530.99 1916.3 1535.79 1904.62 1537.41 C 1901.09 1539.48 1860.58 1549.8 1855.98 1550.09 C 1796.6 1553.84 1736.21 1549.99 1676.61 1551.9 C 1651.58 1552.7 1659.77 1540.96 1642.13 1568.2 C 1619.88 1602.54 1593.23 1633.71 1563.6 1661.84 C 1470.92 1753.74 1343.86 1808.81 1213.42 1813.73 C 1197.29 1814.34 1180.21 1813.99 1163.8 1813.99 L 1062.67 1814.15 L 912.322 1942.82 C 887.337 1964.3 858.935 1990.67 831.747 2008.86 C 823.922 2014.1 808.349 2016.44 798.696 2016.46 C 778.126 2016.31 758.456 2008.01 744.003 1993.37 C 715.57 1964.8 720.928 1927.73 720.982 1890.78 L 721.047 1795.01 C 706.258 1792.06 689.628 1787.06 675.436 1782.12 C 579.189 1748.61 495.086 1684.87 432.308 1605.05 C 421.713 1591.58 401.395 1563.86 394.002 1548.74 C 393.647 1548.83 393.293 1548.92 392.938 1549.01 L 391.155 1549.41 C 372.547 1553.9 315.896 1551.49 293.608 1551.51 L 233.88 1551.59 C 226.049 1551.59 200.84 1551.74 194.856 1550.69 C 178.957 1547.9 114.194 1531.14 104.035 1524.7 C 52.3647 1502.23 16.5548 1446.72 13.9988 1390.76 C 12.6716 1361.71 13.2395 1332.12 13.2426 1303 L 13.3405 1144.32 L 13.307 1012.16 C 13.2929 988.553 12.305 955.032 14.4927 932.488 C 16.6606 910.132 22.4641 888.28 31.6742 867.795 C 58.8326 806.974 119.826 764.802 186.075 759.971 z"/>
<path transform="translate(0,0)" fill="rgb(18,45,41)" d="M 466.506 848.929 C 469.575 841.89 472.283 816.18 474.056 806.83 C 478.655 782.385 484.854 758.269 492.613 734.637 C 542.633 587.639 651.626 468.122 793.404 404.804 C 930.822 344.352 1086.45 340.105 1226.96 392.971 C 1363.36 445.185 1473.6 549.185 1533.67 682.315 C 1550.57 719.67 1563.26 758.788 1571.52 798.949 C 1575 816.192 1577.19 835.41 1580.66 851.816 C 1520.16 911.47 1524.86 958.967 1524.95 1036.73 L 1525.02 1162.44 L 1524.97 1310.33 C 1524.95 1337.55 1524.37 1366.28 1525.4 1393.26 C 1526.9 1432.62 1546.2 1476.86 1574.31 1504.34 C 1581.27 1511.15 1590.44 1517.26 1596.71 1524.53 L 1596.57 1526.44 C 1591.21 1529.64 1586.59 1538.48 1582.59 1543.87 C 1573.2 1556.55 1563.56 1569.04 1553.67 1581.34 C 1506.5 1638.67 1446.48 1684.08 1378.47 1713.87 C 1333.97 1733.17 1286.76 1745.49 1238.5 1750.42 C 1191.64 1755.38 1144.03 1753.23 1097 1754.07 C 1084.21 1754.29 1045.95 1750.95 1036.35 1757.48 C 1022.49 1766.91 1005.31 1783.53 992.177 1794.95 L 869.584 1901.33 C 854.76 1914.27 840.028 1927.31 825.158 1940.2 C 816.641 1947.59 807.278 1956.43 795.001 1953.04 C 773.968 1947.24 778.802 1914.5 778.82 1897.37 L 778.958 1810.87 C 778.986 1795.63 779.325 1780.3 778.612 1765.05 C 777.261 1736.16 743.814 1738.12 722.451 1732.34 C 614.502 1703.14 509.422 1621.45 452.739 1525.46 C 453.971 1521.36 466.643 1511.94 470.998 1507.67 C 505.813 1473.54 523.758 1430.12 523.842 1381.39 C 523.986 1297.58 523.836 1213.72 523.918 1129.93 L 523.942 1032.13 C 523.917 949.098 528.391 912.633 466.506 848.929 z"/>
<path transform="translate(0,0)" fill="rgb(105,201,157)" d="M 1021.99 723.22 C 1028.11 722.804 1034.59 724.139 1040.17 726.654 C 1049.06 730.664 1055.64 738.265 1058.76 747.451 C 1063.87 762.461 1061.13 836.352 1061.13 856.801 L 1061.15 1065.19 L 1061.13 1318.35 C 1061.14 1362.02 1061.3 1405.7 1061.01 1449.36 C 1060.88 1469.35 1051.25 1482.63 1031.98 1488.17 C 1014.99 1489.29 1001.68 1484.47 993.59 1468.03 C 993.009 1466.5 991.337 1463.91 991.168 1462.28 C 989.084 1442.17 989.907 1418.89 989.903 1398.82 L 989.922 1253.57 L 989.941 924.623 L 989.927 815.141 C 989.929 796.103 989.854 776.947 990.045 757.918 C 990.108 751.62 992.809 744.203 996.364 739.081 C 1003.1 729.386 1010.78 725.386 1021.99 723.22 z"/>
<path transform="translate(0,0)" fill="rgb(105,201,157)" d="M 1201.5 881.243 C 1217.95 879.192 1232.58 885.742 1240.07 900.86 C 1242.32 905.403 1243.08 915.683 1243.15 920.922 C 1243.5 947.684 1243.52 974.481 1243.48 1001.25 L 1243.52 1129.18 L 1243.51 1252.85 C 1243.52 1275.29 1243.76 1297.75 1243.26 1320.17 C 1242.89 1336.41 1234.22 1348.12 1219.58 1354.57 C 1210.13 1357.12 1204.89 1356.44 1196.04 1353.91 C 1188.54 1351.77 1176.98 1339.98 1175.82 1333.53 C 1171.85 1311.56 1173.27 1278.35 1173.28 1256.21 L 1173.37 1151.68 L 1173.3 1004.86 C 1173.29 977.44 1173.14 950.06 1173.59 922.644 C 1173.95 901.328 1180.06 888.26 1201.5 881.243 z"/>
<path transform="translate(0,0)" fill="rgb(105,201,157)" d="M 833.381 881.191 C 843.655 880.066 846.529 880.545 856.027 884.701 C 862.48 887.524 872.49 898.34 873.408 904.773 C 876.912 929.346 875.453 962.185 875.373 987.143 L 875.303 1100.9 L 875.341 1244.33 C 875.35 1269.9 875.576 1295.49 874.992 1321.05 C 874.571 1339.43 863.744 1351.54 846.179 1355.94 C 836.353 1356.38 835.029 1356.25 826.047 1353.15 C 820.031 1351.48 808.607 1339.76 807.745 1333.78 C 803.861 1306.81 805.433 1274.91 805.427 1247.7 L 805.42 1118.63 L 805.495 984.225 C 805.522 961.081 805.271 937.839 805.744 914.712 C 806.109 896.889 817.687 886.574 833.381 881.191 z"/>
<path transform="translate(0,0)" fill="rgb(105,201,157)" d="M 672.186 1009.2 C 679.836 1009 685.903 1010.01 692.417 1013.83 C 708.343 1023.35 709.998 1036.9 709.992 1053.57 C 709.984 1075.55 710.08 1097.43 710.092 1119.31 L 710.087 1175.22 C 710.063 1203.67 715.006 1234.54 678.767 1241.91 C 669.955 1242.05 663.286 1241.12 655.633 1236.2 C 648.197 1231.45 643.036 1223.85 641.354 1215.19 C 639.213 1204.42 639.781 1188.79 639.754 1177.45 L 639.691 1122.38 L 639.699 1070.55 C 639.763 1042.1 636.354 1015.71 672.186 1009.2 z"/>
<path transform="translate(0,0)" fill="rgb(105,201,157)" d="M 1370.79 1009.23 C 1415.07 1007.37 1409.94 1048.01 1409.95 1077.92 L 1409.89 1134.44 C 1409.85 1158.46 1410.32 1182.55 1409.44 1206.53 C 1408.7 1226.46 1398.39 1237.62 1379.24 1241.92 C 1371.89 1242.34 1365.64 1241.75 1359.04 1238.24 C 1351.47 1234.21 1344.26 1226.06 1342.08 1217.67 C 1338.83 1205.13 1338.75 1059.63 1340.97 1039.57 C 1341.54 1034.45 1343 1030.25 1345.65 1025.84 C 1351.5 1016.11 1360.1 1011.64 1370.79 1009.23 z"/>
<path transform="translate(0,0)" fill="rgb(105,201,157)" d="M 186.075 759.971 C 195.422 706.043 200.971 670.377 217.723 616.408 C 273.817 439.353 386.436 285.584 538.31 178.676 C 652.9 98.1205 789.623 51.0058 928.476 36.1283 C 959.844 32.9054 991.249 32.5907 1022.71 30.7282 C 1034.29 30.0424 1047.97 32.4712 1059.75 32.5049 C 1102.88 32.6283 1145.69 37.6262 1188.27 45.0909 C 1403.53 81.9249 1594.73 204.278 1718.36 384.303 C 1781.18 474.617 1825.65 576.395 1849.23 683.852 C 1853 701.153 1855.88 719.364 1859.02 736.823 C 1860.38 744.353 1860.8 752.9 1862.14 760.205 C 1943.02 762.942 2013.03 829.769 2029.37 907.692 C 2035.8 938.343 2034.05 974.33 2034.04 1005.84 L 2033.99 1122.73 L 2033.99 1293.23 C 2034.01 1323.52 2034.42 1355.08 2033.79 1385.26 C 2032.9 1427.55 2013.58 1470.06 1982.24 1498.8 C 1970.69 1509.55 1957.44 1518.32 1943.03 1524.75 C 1940.64 1519.78 1945.51 1519.14 1949.49 1513.48 C 1960.95 1497.21 1970.2 1474.03 1973.53 1454.67 C 1978.3 1441 1984.09 1393.73 1984.51 1378.67 C 1985.27 1351.32 1984.98 1319.86 1984.98 1292.17 L 1985.02 1134.15 L 1985.13 1023.49 C 1985.16 1000.65 1986.16 971.832 1983.04 949.959 C 1979.02 920.352 1966.79 892.462 1947.74 869.446 C 1923.96 841.038 1890.24 822.764 1853.46 818.347 C 1837.13 816.419 1818.29 816.933 1801.68 816.944 L 1729.18 817.027 C 1723.91 817.033 1708.54 817.995 1705.2 815.494 L 1704.43 809.409 L 1703.6 814.285 C 1698.18 814.982 1687.18 814.03 1681.01 814.086 C 1660.91 814.443 1641.02 818.222 1622.19 825.26 C 1605.62 832.559 1594.66 840.125 1580.66 851.816 C 1577.19 835.41 1575 816.192 1571.52 798.949 C 1563.26 758.788 1550.57 719.67 1533.67 682.315 C 1473.6 549.185 1363.36 445.185 1226.96 392.971 C 1086.45 340.105 930.822 344.352 793.404 404.804 C 651.626 468.122 542.633 587.639 492.613 734.637 C 484.854 758.269 478.655 782.385 474.056 806.83 C 472.283 816.18 469.575 841.89 466.506 848.929 C 453.484 837.525 442.193 831.291 426.514 824.424 C 406.299 817.578 364.669 809.324 344.69 815.852 C 339.908 818.043 308.826 817.147 301.948 817.104 L 240.001 816.913 C 220.444 816.923 201.605 816.482 182.334 820.46 C 118.706 833.597 69.3708 890.426 63.2639 954.776 C 61.0808 977.779 61.87 1002.25 61.8493 1025.5 L 61.9192 1151.55 L 61.8047 1306.01 C 61.803 1332.15 60.2246 1363.86 62.6459 1390.2 C 66.3832 1430.85 74.4657 1484.88 100.567 1517.6 C 102.59 1520.14 105.528 1521.63 104.035 1524.7 C 52.3647 1502.23 16.5548 1446.72 13.9988 1390.76 C 12.6716 1361.71 13.2395 1332.12 13.2426 1303 L 13.3405 1144.32 L 13.307 1012.16 C 13.2929 988.553 12.305 955.032 14.4927 932.488 C 16.6606 910.132 22.4641 888.28 31.6742 867.795 C 58.8326 806.974 119.826 764.802 186.075 759.971 z"/>
<path transform="translate(0,0)" fill="rgb(47,94,74)" d="M 344.69 815.852 C 345.471 796.529 351.795 760.675 355.776 741.665 C 378.001 633.221 426.049 531.735 495.845 445.813 C 608.776 306.807 772.154 218.173 950.255 199.295 C 1132.52 180.109 1312.12 228.748 1454.96 344.954 C 1596.59 460.422 1686.37 627.568 1704.43 809.409 L 1703.6 814.285 C 1698.18 814.982 1687.18 814.03 1681.01 814.086 C 1660.91 814.443 1641.02 818.222 1622.19 825.26 C 1605.62 832.559 1594.66 840.125 1580.66 851.816 C 1577.19 835.41 1575 816.192 1571.52 798.949 C 1563.26 758.788 1550.57 719.67 1533.67 682.315 C 1473.6 549.185 1363.36 445.185 1226.96 392.971 C 1086.45 340.105 930.822 344.352 793.404 404.804 C 651.626 468.122 542.633 587.639 492.613 734.637 C 484.854 758.269 478.655 782.385 474.056 806.83 C 472.283 816.18 469.575 841.89 466.506 848.929 C 453.484 837.525 442.193 831.291 426.514 824.424 C 406.299 817.578 364.669 809.324 344.69 815.852 z"/>
<path transform="translate(0,0)" fill="rgb(13,15,18)" d="M 426.514 824.424 C 430.783 793.38 433.519 772.001 441.308 741.317 C 474.342 611.114 550.473 495.924 657.31 414.499 C 787.016 317.29 949.857 275.222 1110.42 297.443 C 1266.15 318.569 1407.16 400.558 1502.56 525.451 C 1559.72 600.721 1598.51 688.307 1615.82 781.224 C 1618.77 796.704 1620.01 809.885 1622.19 825.26 C 1605.62 832.559 1594.66 840.125 1580.66 851.816 C 1577.19 835.41 1575 816.192 1571.52 798.949 C 1563.26 758.788 1550.57 719.67 1533.67 682.315 C 1473.6 549.185 1363.36 445.185 1226.96 392.971 C 1086.45 340.105 930.822 344.352 793.404 404.804 C 651.626 468.122 542.633 587.639 492.613 734.637 C 484.854 758.269 478.655 782.385 474.056 806.83 C 472.283 816.18 469.575 841.89 466.506 848.929 C 453.484 837.525 442.193 831.291 426.514 824.424 z"/>
<path transform="translate(0,0)" fill="rgb(75,145,113)" d="M 1904.62 1537.41 L 1904 1537.01 C 1904.58 1531.54 1917.9 1525 1923.5 1520.53 C 1939.6 1507.65 1950.07 1493.82 1960.16 1475.92 C 1963.17 1470.56 1969.45 1458.36 1973.53 1454.67 C 1970.2 1474.03 1960.95 1497.21 1949.49 1513.48 C 1945.51 1519.14 1940.64 1519.78 1943.03 1524.75 C 1933.19 1530.99 1916.3 1535.79 1904.62 1537.41 z"/>
<path transform="translate(0,0)" fill="rgb(18,45,41)" d="M 213.052 865.416 C 239.047 864.509 270.003 865.143 296.454 865.095 C 319.26 865.053 365.194 863.728 385.006 868.272 C 400.515 871.987 414.984 879.159 427.332 889.251 C 450.197 908.018 464.867 934.942 468.239 964.33 C 470.522 985.876 469.223 1028.22 469.197 1051.32 L 469.149 1209.64 L 469.153 1332.58 C 469.166 1349.56 470.095 1384.86 467.847 1399.85 C 464.727 1421.37 455.891 1441.67 442.259 1458.61 C 420.605 1485.42 395.65 1496.25 362.242 1499.74 C 338.864 1500.85 313.157 1500.26 289.511 1499.98 C 231.348 1499.28 170.596 1510.39 131.11 1456.88 C 112.16 1431.19 107.675 1407.34 107.579 1376.8 C 107.502 1352.17 107.547 1328.53 107.553 1304.45 L 107.559 1136.14 L 107.283 1021.47 C 107.295 1004.59 106.604 986.453 108.013 969.745 C 113.135 908.996 153.847 869.99 213.052 865.416 z"/>
<path transform="translate(0,0)" fill="rgb(18,45,41)" d="M 1685.36 865.412 C 1710.21 864.365 1739.41 865.099 1765.01 865.095 C 1794.43 865.09 1830 863.317 1858.57 868.423 C 1871.93 870.811 1885.74 879.564 1896.4 887.19 C 1916.45 901.526 1935.74 932.655 1938.09 957.236 C 1940.47 981.996 1939.44 1015.25 1939.42 1041.21 L 1939.36 1193.66 L 1939.36 1330.8 C 1939.36 1346.64 1940.26 1387.82 1938.23 1402.34 C 1935.33 1423.23 1926.87 1442.96 1913.74 1459.46 C 1892.48 1486.09 1867.62 1496.17 1834.7 1499.84 C 1794.1 1500.6 1753.25 1499.62 1712.62 1499.99 C 1698.27 1500.12 1682.48 1500.3 1668.48 1497.24 C 1651.59 1493.65 1635.82 1486.04 1622.51 1475.04 C 1571.52 1433.13 1579.18 1377.17 1579.31 1318.27 L 1579.38 1186.65 L 1579.23 1041.02 C 1579.26 1020.72 1578.27 979.681 1581.13 961.365 C 1584.38 940.37 1593.24 920.64 1606.75 904.248 C 1627.62 879.444 1653.62 867.972 1685.36 865.412 z"/>
</svg>